<?xml version="1.0" encoding="UTF-8"?>
<svg id="Layer_1" xmlns="http://www.w3.org/2000/svg" version="1.1" viewBox="0 0 43.5 43.5">
  <!-- Generator: Adobe Illustrator 29.8.1, SVG Export Plug-In . SVG Version: 2.1.1 Build 2)  -->
  <defs>
    <style>
      .st0, .st1 {
        fill: #4e3170;
      }

      .st1 {
        stroke: #fff;
        stroke-miterlimit: 10;
        stroke-width: .5px;
      }

      .st2 {
        fill: #fff;
      }

      .st3 {
        fill: #74377c;
      }

      .st4 {
        fill: #98377c;
      }
    </style>
  </defs>
  <rect class="st2" width="43.5" height="43.5"/>
  <g>
    <g id="GjBPu8.tif">
      <g>
        <path class="st2" d="M28.8,32.5h.3c0,0,.3-.2.4-.4v-.2c-.2.2-.4.4-.6.6h0Z"/>
        <path class="st0" d="M34.8,8.6c-2.4-.5-4.5-1.3-6.7-2.5-.5-.3-1.9-1.3-2.3-1.3-2.7-.3-5.7.2-8.5,0-2.7,1.9-5.5,3.2-8.8,3.9-.7.1-1.7,0-1.8,1,.2,4.2-.2,8.5,0,12.7.3,5.6,4.1,10.4,8.4,13.5,1.9,1.4,4,2.4,6.3,3.1h.3c6.7-2.2,13-7.7,14.5-14.8l.2-1.7v-13.1c-.3-.7-1.1-.6-1.7-.7h0ZM29.4,32v.2c0,.1-.3.4-.4.4h-.3c-2.1,1.9-4.6,3.3-7.1,4.2-2.5-.8-5-2.3-7.1-4.2-.2-.2-.4-.4-.7-.6-2.8-2.7-4.8-6.1-5-9.8v-11.5c3.3-.5,6.3-2,9-3.8h7.4c2.7,1.8,5.8,3.2,9.1,3.8v11.5c-.2,3.7-2.2,7.2-5,9.8h0Z"/>
        <path class="st4" d="M23.3,15.8c-.3,0-.7,0-1-.1,0,0-.4-.8-.5-1,0,0,0-.1-.2,0,0,0-.1,0-.1.1-.1.1-.4.9-.5.9l-1.2.2c-.2.3.7.7.8,1,0,.2-.3,1-.1,1.2.2.3.9-.5,1.3-.4.2,0,1.1.8,1.1.2,0-.3-.2-.7-.2-1,0-.2,1.2-.9.6-1.1h0ZM23.3,15.8c-.3,0-.7,0-1-.1,0,0-.4-.8-.5-1,0,0,0-.1-.2,0,0,0-.1,0-.1.1-.1.1-.4.9-.5.9l-1.2.2c-.2.3.7.7.8,1,0,.2-.3,1-.1,1.2.2.3.9-.5,1.3-.4.2,0,1.1.8,1.1.2,0-.3-.2-.7-.2-1,0-.2,1.2-.9.6-1.1h0ZM18.5,24.7c0-.2-.1-.4-.4-.4-.6,0-1.3,0-1.9,0-.2,0-.2.2-.3.3,0,.4,0,1.4,0,1.8,0,.2.1.3.4.3.4,0,1.4,0,1.8,0,.3,0,.4-.2.4-.5,0-.4,0-1.2,0-1.6h0ZM18.5,20.6c0-.2-.1-.4-.4-.5-.6,0-1.3,0-1.9,0-.2,0-.2.2-.3.3,0,.4,0,1.4,0,1.8,0,.3.3.4.5.4.4,0,1.2,0,1.6,0,.3,0,.4-.2.5-.5,0-.4,0-1.2,0-1.6h0ZM22.9,24.6c0-.2-.1-.3-.3-.3-.6,0-1.3,0-1.9,0-.2,0-.3.3-.3.5,0,.4,0,1.2,0,1.6,0,.3.1.4.4.5.4,0,1.4,0,1.8,0,.2,0,.3-.2.3-.4,0-.4,0-1.4,0-1.8h0ZM23.3,15.8c-.3,0-.7,0-1-.1,0,0-.4-.8-.5-1,0,0,0-.1-.2,0,0,0-.1,0-.1.1-.1.1-.4.9-.5.9l-1.2.2c-.2.3.7.7.8,1,0,.2-.3,1-.1,1.2.2.3.9-.5,1.3-.4.2,0,1.1.8,1.1.2,0-.3-.2-.7-.2-1,0-.2,1.2-.9.6-1.1h0ZM24,32.5v-3.1c0,0-.2-.3-.3-.3h-1.7v3.4h-.7v-3.4h-1.8s-.2.3-.2.3v3.1h-2.6c1.6,1.2,3.3,2.1,4.9,2.7,1.6-.6,3.3-1.5,4.9-2.7,0,0-2.5,0-2.5,0ZM27.4,20.5c0-.2-.1-.4-.3-.4-.3,0-1.7,0-1.9,0-.2,0-.3.2-.3.4,0,.4,0,1.3,0,1.7,0,.3.3.4.5.4.4,0,1.2,0,1.6,0,.3,0,.4-.1.5-.4,0-.4,0-1.3,0-1.7h0ZM27.4,24.6c0-.2-.1-.3-.3-.3-.6,0-1.3,0-2,0-.2,0-.2.2-.3.4,0,.4,0,1.3,0,1.7,0,.2.1.4.3.4.4,0,1.5,0,1.9,0,.2,0,.3-.2.3-.4,0-.4,0-1.4,0-1.8ZM23.3,15.8c-.3,0-.7,0-1-.1,0,0-.4-.8-.5-1,0,0,0-.1-.2,0,0,0-.1,0-.1.1-.1.1-.4.9-.5.9l-1.2.2c-.2.3.7.7.8,1,0,.2-.3,1-.1,1.2.2.3.9-.5,1.3-.4.2,0,1.1.8,1.1.2,0-.3-.2-.7-.2-1,0-.2,1.2-.9.6-1.1h0ZM32.9,11.7c-2.9-.7-5.5-1.9-8-3.5h-6.6c-2.5,1.6-5.2,2.8-8.1,3.6v10.2c.1,2.9,1.5,5.6,3.6,7.9v-11.2h0c0,0,4.2,0,4.2,0,.6.9,1.4,1.5,2.2,2.1,0,0,0,1.2,0,1.4,0,.2,0,.4.3.5s1.4,0,1.7,0c.2,0,.5,0,.6-.3,0-.3,0-1.5,0-1.6.9-.6,1.7-1.2,2.3-2.1h4.2c0,0,0,0,0,.2,0,.6,0,1.3,0,2,0,3.1,0,6.1,0,9.2,2-2.2,3.5-4.9,3.6-7.8v-10.4c-.1,0-.1,0-.1,0ZM12.8,17.9c-.2,0-.4-.3-.4-.5,0-.3,0-1.5,0-1.8,0-.2.3-.5.5-.5h4.9c0,.9-.1,1.9.1,2.8,0,0-5,0-5,0ZM24.9,17.3c0,1-1.2,2.1-1.9,2.6-.2.2-1.1.7-1.4.7-.2,0-1-.5-1.2-.7-.8-.5-2-1.6-2-2.6v-3.6c1.1.1,2.4-.1,3.2-1,.2.2.4.3.6.5.8.5,1.8.6,2.6.5,0,0,0,3.6,0,3.6ZM31,17.4c0,.1-.3.5-.5.5h-5c.2-.9,0-1.8.1-2.8h4.9c.1,0,.4.3.5.5v1.8h0ZM23.3,15.8c-.3,0-.7,0-1-.1,0,0-.4-.8-.5-1,0,0,0-.1-.2,0,0,0-.1,0-.1.1-.1.1-.4.9-.5.9l-1.2.2c-.2.3.7.7.8,1,0,.2-.3,1-.1,1.2.2.3.9-.5,1.3-.4.2,0,1.1.8,1.1.2,0-.3-.2-.7-.2-1,0-.2,1.2-.9.6-1.1h0ZM23.3,15.8c-.3,0-.7,0-1-.1,0,0-.4-.8-.5-1,0,0,0-.1-.2,0,0,0-.1,0-.1.1-.1.1-.4.9-.5.9l-1.2.2c-.2.3.7.7.8,1,0,.2-.3,1-.1,1.2.2.3.9-.5,1.3-.4.2,0,1.1.8,1.1.2,0-.3-.2-.7-.2-1,0-.2,1.2-.9.6-1.1h0ZM23.3,15.8c-.3,0-.7,0-1-.1,0,0-.4-.8-.5-1,0,0,0-.1-.2,0,0,0-.1,0-.1.1-.1.1-.4.9-.5.9l-1.2.2c-.2.3.7.7.8,1,0,.2-.3,1-.1,1.2.2.3.9-.5,1.3-.4.2,0,1.1.8,1.1.2,0-.3-.2-.7-.2-1,0-.2,1.2-.9.6-1.1h0Z"/>
      </g>
    </g>
    <path d="M26.6,32.5h2.5c0,0,.3-.2.4-.4v-.2c0-.7,0-1.3,0-2-.9,1-1.8,1.8-2.8,2.6Z"/>
    <g>
      <path class="st3" d="M29,38.9c-4.6,0-8.3-3.7-8.3-8.3s3.7-8.3,8.3-8.3"/>
      <circle class="st1" cx="28.5" cy="30.4" r="8.3"/>
      <g id="jMrtng">
        <path class="st4" d="M28.2,27.8v.9c0,0,0,.9,0,.9,1-.9,2.3-.4,3.1.5.6.7,1,1.6,1.5,2.4,0,0,0,0,0,0,0,0-.4.3-.4.3s0,0,0,0c0,0-.4-.8-.4-.9-.4-.7-.9-1.6-1.8-1.8-.4-.1-1,0-1.4.2-.6.5-.5,1.5.4,1.4.4,0,.8-.5,1-.9l.7.5c0,0,0,.3,0,.4-.3.5-.8.9-1.4.8-.7,0-1.4-.7-1.6-1.3,0,0,0,0,0,0-.2.1-.4.3-.7.5-.1,0-.3.2-.4.3,0,0,0,0,0,0,.1.1.3.3.4.4.9.8,1.9,1.4,3,2h0c0,0-.6,1.1-.6,1.1,0,0-.1,0-.2,0-.4-.3-.9-.7-1.3-1-.9-.8-2.5-2.4-2.8-3.5-.3-1.1.9-1,1.6-1,0,0,.1,0,.2,0,0,0,.1-.3.1-.4,0-.2,0-.5,0-.7,0-.4,0-.8,0-1.1h-2.8s-.4-.8-.4-.8h0c0,0,8.7,0,8.7,0l.4.8s0,.1,0,.1h-5Z"/>
      </g>
      <g id="jMrtng-2">
        <path class="st2" d="M28.1,27.5v.9c0,0,0,.9,0,.9,1-.9,2.3-.4,3.1.5.6.7,1,1.6,1.5,2.4,0,0,0,0,0,0,0,0-.4.3-.4.3s0,0,0,0c0,0-.4-.8-.4-.9-.4-.7-.9-1.6-1.8-1.8-.4-.1-1,0-1.4.2-.6.5-.5,1.5.4,1.4.4,0,.8-.5,1-.9l.7.5c0,0,0,.3,0,.4-.3.5-.8.9-1.4.8-.7,0-1.4-.7-1.6-1.3,0,0,0,0,0,0-.2.1-.4.3-.7.5-.1,0-.3.2-.4.3,0,0,0,0,0,0,.1.1.3.3.4.4.9.8,1.9,1.4,3,2h0c0,0-.6,1.1-.6,1.1,0,0-.1,0-.2,0-.4-.3-.9-.7-1.3-1-.9-.8-2.5-2.4-2.8-3.5s.9-1,1.6-1c0,0,.1,0,.2,0,0,0,.1-.3.1-.4,0-.2,0-.5,0-.7,0-.4,0-.8,0-1.1h-2.8s-.4-.8-.4-.8h0c0,0,8.7,0,8.7,0l.4.8s0,.1,0,.1h-5Z"/>
      </g>
    </g>
  </g>
</svg>